<?xml version="1.0" encoding="UTF-8"?>
<svg version="1.1" xmlns="http://www.w3.org/2000/svg" width="1024" height="1024">
<path d="M0 0 C337.92 0 675.84 0 1024 0 C1024 337.92 1024 675.84 1024 1024 C686.08 1024 348.16 1024 0 1024 C0 686.08 0 348.16 0 0 Z " fill="#FEFBF3" transform="translate(0,0)"/>
<path d="M0 0 C1.2823129 -0.00382555 2.5646258 -0.00765109 3.88579667 -0.01159257 C7.42016122 -0.02182184 10.95442375 -0.01970379 14.48879647 -0.01541197 C18.31030114 -0.01293549 22.13178182 -0.02197031 25.95327759 -0.02944946 C33.43032324 -0.04217281 40.90733294 -0.04399312 48.3843876 -0.0416492 C54.46433258 -0.03986328 60.54426668 -0.04162156 66.62421036 -0.04587364 C67.49085421 -0.04646883 68.35749807 -0.04706402 69.25040386 -0.04767724 C71.01121774 -0.04888905 72.77203163 -0.05010318 74.53284551 -0.05131962 C91.03089632 -0.06218599 107.52892667 -0.06003691 124.02697863 -0.05393478 C139.10466812 -0.0487661 154.18229299 -0.06002137 169.2599697 -0.07903299 C184.75960042 -0.09842613 200.25920061 -0.10666483 215.75884354 -0.10290974 C224.45355807 -0.10099998 233.14821761 -0.10346334 241.84292221 -0.11762428 C249.24463731 -0.12955785 256.64626357 -0.13092083 264.04797994 -0.11883412 C267.82064023 -0.11295935 271.59313817 -0.11180692 275.36578751 -0.12383652 C279.46436362 -0.13675297 283.56255595 -0.1261977 287.66113281 -0.11352539 C288.84111528 -0.12089968 290.02109775 -0.12827396 291.23683727 -0.13587171 C307.21979394 -0.0322454 321.26956133 4.96558811 332.96536255 16.10444641 C344.5268272 28.61803168 349.26494665 42.4334922 349.23170471 59.14997864 C349.23694139 60.45211288 349.24217807 61.75424712 349.24757344 63.09583998 C349.26171555 66.69958978 349.26341745 70.30325319 349.26297653 73.90702677 C349.26462814 77.7981789 349.27770125 81.68929579 349.28916931 85.58042908 C349.31199394 94.08488224 349.31993751 102.58931041 349.32499576 111.09379005 C349.32825638 116.40886429 349.33478116 121.72393131 349.34199715 127.03900146 C349.36156146 141.76829545 349.37796609 156.49758275 349.38087368 171.22689056 C349.38106125 172.16900689 349.38124882 173.11112321 349.38144207 174.08178851 C349.38180831 175.9915266 349.38217201 177.9012647 349.38253319 179.81100279 C349.382716 180.7589427 349.38289881 181.70688261 349.38308716 182.68354797 C349.38335798 184.10720331 349.38335798 184.10720331 349.38363428 185.55961937 C349.38717328 200.92650378 349.41417929 216.29324783 349.45158505 231.66008359 C349.48972252 247.45456845 349.50903156 263.24898378 349.50933319 279.04351568 C349.50991661 287.90441635 349.51833385 296.76514965 349.54733086 305.62600708 C349.57191787 313.17377153 349.57907864 320.72130759 349.56408333 328.26910132 C349.55694363 332.11513148 349.55764325 335.96071135 349.58049393 339.80669022 C349.6925659 359.88970915 349.66139175 376.25997729 335.95755005 392.26069641 C335.38649536 392.97741516 334.81544067 393.69413391 334.2270813 394.43257141 C330.18253425 399.03960513 325.53237218 401.85927981 320.14505005 404.63569641 C319.50567505 404.9698053 318.86630005 405.30391418 318.20755005 405.64814758 C308.58770238 410.31046148 298.32339361 410.55571581 287.81503296 410.52812195 C286.53398233 410.53265306 285.2529317 410.53718417 283.93306136 410.54185259 C280.40675282 410.55399479 276.88053977 410.55383261 273.35421515 410.55146384 C269.53948373 410.55105344 265.72478203 410.56211597 261.9100647 410.57157898 C254.44752735 410.58814125 246.9850216 410.59368634 239.5224674 410.59480374 C233.45258308 410.5957564 227.38270911 410.59987759 221.31282806 410.60620499 C204.07781346 410.62380375 186.84282369 410.6330459 169.60780004 410.63154404 C168.68004371 410.63146413 167.75228739 410.63138421 166.79641724 410.63130188 C165.86751937 410.63122012 164.93862151 410.63113836 163.98157522 410.63105412 C148.93182488 410.63024143 133.88217467 410.64937837 118.83245328 410.67757861 C103.35424563 410.70635137 87.87608676 410.72011652 72.39785171 410.71839106 C63.71812567 410.71772871 55.03850464 410.72315278 46.3588028 410.74474716 C38.96852565 410.7630168 31.57840112 410.767259 24.1881111 410.75372832 C20.42312409 410.74722791 16.6584294 410.74697439 12.89347076 410.76443481 C-9.20417435 410.86035941 -28.16493048 410.57439026 -45.29244995 394.69819641 C-57.15279446 382.13119692 -61.51294778 368.03293382 -61.43685913 350.96632385 C-61.44295023 349.66893902 -61.44904134 348.37155418 -61.45531702 347.03485465 C-61.47160742 343.46290019 -61.46942109 339.89116801 -61.46394205 336.31918955 C-61.46125827 332.45536548 -61.47582886 328.59159888 -61.48803711 324.72779846 C-61.50903705 317.16899514 -61.51363507 309.61026861 -61.51184922 302.05143955 C-61.51053878 295.90336573 -61.5143601 289.75531574 -61.52177429 283.6072464 C-61.52387362 281.83259702 -61.52597122 280.05794764 -61.52806711 278.28329825 C-61.52911064 277.39984858 -61.53015417 276.5163989 -61.53122932 275.60617802 C-61.55010997 258.91726854 -61.54908825 242.22840306 -61.54225999 225.53948733 C-61.53668687 210.29571507 -61.55750397 195.05211098 -61.59062046 179.80837801 C-61.62441229 164.13128085 -61.63951891 148.45426413 -61.63490343 132.77712989 C-61.6326642 123.98560199 -61.63782167 115.1942295 -61.66279602 106.40273285 C-61.68388032 98.91727117 -61.68733089 91.4320501 -61.66849643 83.94657829 C-61.65938201 80.13293062 -61.65806201 76.3197307 -61.67885208 72.50611877 C-61.8601939 36.89351615 -61.8601939 36.89351615 -50.04244995 22.26069641 C-49.1297937 21.10634094 -49.1297937 21.10634094 -48.19869995 19.92866516 C-43.73775182 14.59145937 -39.06880934 10.71006019 -33.04244995 7.26069641 C-32.23678589 6.79663391 -31.43112183 6.33257141 -30.6010437 5.85444641 C-20.72915532 0.54000259 -11.0671278 -0.03531299 0 0 Z " fill="#00273B" transform="translate(368.0424499511719,217.7393035888672)"/>
<path d="M0 0 C7.40588736 5.00157123 12.91370372 11.92881252 18.46484375 18.83203125 C21.01730701 21.98848096 23.62235871 25.09370169 26.25 28.1875 C26.93751343 28.99743408 26.93751343 28.99743408 27.63891602 29.82373047 C28.57580855 30.92709091 29.51290315 32.0302798 30.45019531 33.13330078 C31.89419374 34.83512072 33.33439716 36.54007994 34.7734375 38.24609375 C39.12527129 43.40412457 43.48788043 48.54876449 47.953125 53.609375 C49.49787642 55.3801876 51.02620811 57.16174133 52.546875 58.953125 C57.71077763 65.03246222 62.92326785 71.05611593 68.3125 76.9375 C69.03796021 77.73546997 69.03796021 77.73546997 69.77807617 78.54956055 C72.60969007 81.61333039 75.55202419 84.2916218 78.875 86.8125 C83.43330871 82.36074916 87.81590499 77.83240146 91.96875 73 C94.18445648 70.45738601 96.46598592 67.98139802 98.75 65.5 C102.83986485 61.01533674 106.72063204 56.40705192 110.53515625 51.6875 C113.07052863 48.57225114 115.65153254 45.50009394 118.25 42.4375 C118.70415283 41.90165283 119.15830566 41.36580566 119.6262207 40.8137207 C122.07425033 37.92779016 124.52798766 35.04678724 126.984375 32.16796875 C127.4892041 31.57483887 127.9940332 30.98170898 128.51416016 30.37060547 C129.48604137 29.22881272 130.45960797 28.08845188 131.43505859 26.94970703 C133.91401447 24.05904188 133.91401447 24.05904188 135.875 20.8125 C136.535 20.8125 137.195 20.8125 137.875 20.8125 C138.12121094 20.26207031 138.36742187 19.71164062 138.62109375 19.14453125 C144.53468687 8.14635338 154.17060596 -0.66211651 166.0390625 -4.53515625 C173.07096589 -6.15268775 180.14705411 -5.87867836 186.875 -3.1875 C190.85406209 -0.62321554 192.50776587 1.31730501 193.875 5.8125 C194.06370235 8.66510221 194.14932571 11.41853879 194.13569641 14.2698822 C194.13952196 15.11929982 194.14334751 15.96871744 194.14728898 16.84387499 C194.15760411 19.68886706 194.15362965 22.53365675 194.1496582 25.37866211 C194.15400548 27.41890144 194.15918868 29.45913913 194.16514587 31.49937439 C194.178545 37.04064514 194.17911355 42.58184772 194.17658257 48.12313151 C194.17551354 52.74801832 194.18039447 57.37289129 194.185188 61.99777514 C194.19628623 72.90762557 194.19671872 83.81744157 194.19067383 94.72729492 C194.18463202 105.98525851 194.19694964 117.24309717 194.2182439 128.50103945 C194.23585132 138.16485642 194.24186263 147.8286336 194.23860615 157.49246603 C194.23679187 163.26507657 194.23944402 169.03759799 194.25332069 174.81019402 C194.26588047 180.23813554 194.26397239 185.6658821 194.25090981 191.09382057 C194.24854049 193.08603862 194.25129137 195.07827031 194.25953293 197.07047272 C194.26997194 199.78992034 194.2619226 202.5087103 194.2492218 205.22813416 C194.25659609 206.01656375 194.26397037 206.80499335 194.27156812 207.61731476 C194.22429028 212.42877508 193.41786397 215.7214033 190.875 219.8125 C185.01312111 225.12482774 177.73630198 224.0676808 170.30639648 224.10766602 C168.81573999 224.11918126 167.32512459 224.1396263 165.8347168 224.16918945 C163.67468405 224.21202161 161.5158743 224.22805528 159.35546875 224.23828125 C158.06535889 224.25286377 156.77524902 224.26744629 155.44604492 224.2824707 C150.45408169 223.62549872 147.35515523 221.49681458 144.0625 217.75 C141.80887753 214.07303702 141.70125457 210.86728092 141.57397461 206.64770508 C141.53430069 205.36619064 141.49462677 204.08467621 141.45375061 202.764328 C141.41542234 201.34940544 141.37746482 199.93447279 141.33984375 198.51953125 C141.31918287 197.79590708 141.298522 197.07228291 141.27723503 196.32673073 C140.93925431 184.47302101 140.75229499 172.61940873 140.62890625 160.76171875 C140.62051098 159.97087009 140.61211571 159.18002144 140.60346603 158.36520767 C140.52672652 151.07370151 140.45450672 143.78217325 140.39819336 136.49047852 C140.36645743 132.43231331 140.32530187 128.37433651 140.27799797 124.31632423 C140.26207292 122.79293937 140.24970802 121.26951268 140.24109077 119.74606895 C140.22896283 117.64521023 140.20485688 115.54480612 140.17797852 113.4440918 C140.16251732 111.66146187 140.16251732 111.66146187 140.14674377 109.84281921 C139.88665435 106.94246217 139.39073292 105.2621196 137.875 102.8125 C126.44455919 112.53100843 116.3178038 123.55250508 106.95703125 135.2578125 C104.09285312 138.77220743 101.06020777 142.11677524 97.99609375 145.45703125 C96.63915859 146.96390399 95.31478694 148.50116956 94.03515625 150.07421875 C90.29244212 154.6656209 86.74091157 158.25911971 80.875 159.8125 C74.63875978 160.22612818 70.87924858 158.54797513 65.875 154.8125 C64.17234185 153.11773671 62.52600736 151.36469636 60.9375 149.5625 C59.63619141 148.09490234 59.63619141 148.09490234 58.30859375 146.59765625 C57.10396484 145.21900391 57.10396484 145.21900391 55.875 143.8125 C55.28847656 143.15121094 54.70195312 142.48992187 54.09765625 141.80859375 C51.44145424 138.80169514 48.82797597 135.76014344 46.234375 132.69921875 C40.96003617 126.48359975 35.62533618 120.3297547 30.125 114.3125 C29.36582275 113.46824463 29.36582275 113.46824463 28.59130859 112.60693359 C25.81956242 109.60622098 22.96607228 107.042872 19.67480469 104.61523438 C18.96120789 104.0868396 18.24761108 103.55844482 17.51239014 103.01403809 C16.97205139 102.61753052 16.43171265 102.22102295 15.875 101.8125 C15.86745791 102.37903353 15.85991583 102.94556705 15.8521452 103.52926826 C15.66746872 117.32626074 15.46652366 131.12293408 15.24813366 144.9194355 C15.14301142 151.59139726 15.04327122 158.26332841 14.95581055 164.93554688 C14.8712127 171.37428155 14.77250347 177.8126592 14.66399574 184.25103378 C14.62507516 186.70773754 14.59124479 189.16452737 14.56258202 191.62137222 C14.52157447 195.06191268 14.46249615 198.50170255 14.39916992 201.94189453 C14.39125427 202.95825485 14.38333862 203.97461517 14.37518311 205.02177429 C14.2567386 210.34819019 13.89363376 214.22898394 10.875 218.8125 C4.45476514 224.75121724 -2.01282605 224.03025285 -10.26635742 224.05273438 C-12.41950421 224.06241906 -14.57168732 224.09344452 -16.72460938 224.125 C-18.10416103 224.13153289 -19.48371948 224.13678224 -20.86328125 224.140625 C-22.73560425 224.15464355 -22.73560425 224.15464355 -24.64575195 224.16894531 C-29.85324518 223.63544309 -32.90009862 222.28434925 -36.268013 218.23744202 C-38.58681656 213.96074664 -38.68649067 210.93378575 -38.63293457 206.15893555 C-38.64229451 204.87127682 -38.64229451 204.87127682 -38.65184355 203.55760479 C-38.66776848 200.68786144 -38.65517127 197.81896805 -38.64257812 194.94921875 C-38.64799946 192.88912461 -38.65512218 190.82903434 -38.66381836 188.76895142 C-38.68205316 183.17807636 -38.6749834 177.58749658 -38.66230202 171.99661636 C-38.65217524 166.14576674 -38.66156681 160.29494241 -38.66784668 154.4440918 C-38.675124 144.61860617 -38.66553308 134.79324081 -38.64648438 124.96777344 C-38.62471555 113.60806102 -38.63176686 102.24863578 -38.65379 90.88893032 C-38.6719415 81.13590506 -38.67450351 71.38296624 -38.66403532 61.62992954 C-38.65779905 55.80478267 -38.65696854 49.97977077 -38.67018127 44.15463257 C-38.68173541 38.67818127 -38.67372169 33.20210023 -38.65060425 27.72568893 C-38.64531487 25.71573883 -38.64683482 23.70575757 -38.65565491 21.69581985 C-38.66658482 18.95214729 -38.65287768 16.20966139 -38.63293457 13.46606445 C-38.64185746 12.67053508 -38.65078034 11.8750057 -38.65997362 11.05536938 C-38.58685759 5.87002693 -37.53151601 2.93724415 -34.125 -1.1875 C-24.08013505 -8.47002709 -10.15155737 -5.85742881 0 0 Z " fill="#F7592F" transform="translate(434.125,315.1875)"/>
<path d="M0 0 C1.19753906 -0.02900391 2.39507812 -0.05800781 3.62890625 -0.08789062 C4.78003906 -0.09626953 5.93117188 -0.10464844 7.1171875 -0.11328125 C8.17276855 -0.12786377 9.22834961 -0.14244629 10.31591797 -0.1574707 C13.125 0.3125 13.125 0.3125 15.46948242 1.8996582 C17.71277566 5.16915637 17.62693405 7.3967241 17.62109375 11.34375 C17.62254898 12.01668091 17.62400421 12.68961182 17.62550354 13.38293457 C17.623848 14.8017206 17.61232503 16.22052523 17.59155273 17.63916016 C17.56258967 19.80579217 17.57094949 21.96997624 17.58398438 24.13671875 C17.57774642 25.51824101 17.56935502 26.89975557 17.55859375 28.28125 C17.54884521 29.53357422 17.53909668 30.78589844 17.52905273 32.07617188 C17.099994 35.51278976 16.57775207 36.91492674 14.125 39.3125 C9.56219699 40.83343434 5.02955432 40.53789483 0.25 40.5625 C-1.24080078 40.5934375 -1.24080078 40.5934375 -2.76171875 40.625 C-11.97462116 40.67433281 -11.97462116 40.67433281 -15.875 37.3125 C-18.01553349 33.03143302 -17.06085451 27.31918045 -17.06030273 22.56396484 C-17.0624844 20.452593 -17.08063103 18.34174779 -17.09960938 16.23046875 C-17.10254442 14.88541845 -17.10452847 13.54036567 -17.10546875 12.1953125 C-17.10957764 10.97215332 -17.11368652 9.74899414 -17.11791992 8.48876953 C-16.88699523 5.46934221 -16.56189334 3.79185125 -14.875 1.3125 C-10.53769988 -0.85615006 -4.76404235 0.03821424 0 0 Z " fill="#FEFBF3" transform="translate(351.875,274.6875)"/>
<path d="M0 0 C0.83337891 -0.01611328 1.66675781 -0.03222656 2.52539062 -0.04882812 C7.60932033 -0.05284704 11.17606413 0.45540785 15.5625 3.3125 C17.75954432 7.70658865 16.83082092 13.60576119 16.85766602 18.48828125 C16.87488187 20.6725131 16.91877034 22.85523175 16.96289062 25.0390625 C16.97301777 26.42967638 16.98153381 27.82030311 16.98828125 29.2109375 C17.00286377 30.47599121 17.01744629 31.74104492 17.0324707 33.04443359 C16.5625 36.3125 16.5625 36.3125 14.89111328 38.72094727 C10.46626036 41.74523078 5.31206068 40.92501703 0.125 40.875 C-1.57366211 40.91077148 -1.57366211 40.91077148 -3.30664062 40.94726562 C-8.011726 40.93894785 -11.4668498 40.80772969 -15.69140625 38.65234375 C-18.5930599 33.10220087 -18.07482317 27.46707466 -17.9375 21.3125 C-17.94007813 20.04148437 -17.94265625 18.77046875 -17.9453125 17.4609375 C-17.83448602 6.93242169 -17.83448602 6.93242169 -14.4375 2.3125 C-10.02600897 -0.40668721 -5.02399534 -0.01933793 0 0 Z " fill="#F9F7F0" transform="translate(672.4375,274.6875)"/>
<path d="M0 0 C1.14533203 -0.02449219 2.29066406 -0.04898437 3.47070312 -0.07421875 C4.57220703 -0.07808594 5.67371094 -0.08195312 6.80859375 -0.0859375 C7.81591553 -0.09415527 8.8232373 -0.10237305 9.86108398 -0.11083984 C12.5625 0.375 12.5625 0.375 14.88891602 1.94848633 C17.18806309 5.28199804 17.07977006 7.63018836 17.09375 11.66015625 C17.0975769 12.35765488 17.10140381 13.0551535 17.10534668 13.77378845 C17.10806148 15.24381967 17.1007303 16.71389955 17.08398438 18.18383789 C17.06253148 20.43419811 17.08381222 22.68137825 17.109375 24.93164062 C17.10673227 26.36198621 17.10160843 27.79232981 17.09375 29.22265625 C17.08923828 30.52211182 17.08472656 31.82156738 17.08007812 33.16040039 C16.5625 36.375 16.5625 36.375 14.88671875 38.29711914 C12.04343905 39.61571997 9.97653789 39.76284694 6.84375 39.7734375 C5.74675781 39.77730469 4.64976562 39.78117187 3.51953125 39.78515625 C2.37871094 39.77355469 1.23789062 39.76195312 0.0625 39.75 C-1.64873047 39.76740234 -1.64873047 39.76740234 -3.39453125 39.78515625 C-4.49152344 39.78128906 -5.58851563 39.77742188 -6.71875 39.7734375 C-7.71970703 39.77005371 -8.72066406 39.76666992 -9.75195312 39.76318359 C-12.90174446 39.30789557 -14.24471876 38.67390381 -16.4375 36.375 C-18.14988004 30.9568916 -17.62164271 25.00182405 -17.625 19.375 C-17.63724609 18.29476563 -17.64949219 17.21453125 -17.66210938 16.1015625 C-17.66404297 15.05742187 -17.66597656 14.01328125 -17.66796875 12.9375 C-17.67207764 11.99003906 -17.67618652 11.04257812 -17.68041992 10.06640625 C-17.41355568 7.10971138 -16.79571286 5.01171376 -15.4375 2.375 C-10.67664081 -0.79890613 -5.59804275 0.00627935 0 0 Z " fill="#FDFBF3" transform="translate(672.4375,363.625)"/>
<path d="M0 0 C1.04414063 -0.00644531 2.08828125 -0.01289063 3.1640625 -0.01953125 C4.24429687 -0.00019531 5.32453125 0.01914062 6.4375 0.0390625 C8.05785156 0.01005859 8.05785156 0.01005859 9.7109375 -0.01953125 C11.27714844 -0.00986328 11.27714844 -0.00986328 12.875 0 C14.29619141 0.00845947 14.29619141 0.00845947 15.74609375 0.01708984 C19.58098818 0.93893947 21.06914927 2.55230106 23.4375 5.6640625 C24.05273438 8.83032227 24.05273438 8.83032227 24.03125 12.35546875 C24.02867187 13.62970703 24.02609375 14.90394531 24.0234375 16.21679688 C24.00893555 16.87510498 23.99443359 17.53341309 23.97949219 18.21166992 C23.93753699 20.22478744 23.93843468 22.23456461 23.9453125 24.24804688 C23.83360198 35.27946087 23.83360198 35.27946087 20.4375 38.6640625 C15.57475189 40.28497854 10.59260494 39.93186439 5.5 39.9765625 C4.40236328 40.00556641 3.30472656 40.03457031 2.17382812 40.06445312 C1.11744141 40.07283203 0.06105469 40.08121094 -1.02734375 40.08984375 C-1.992771 40.10442627 -2.95819824 40.11900879 -3.95288086 40.1340332 C-7.42463901 39.50879843 -8.53716178 38.53758426 -10.5625 35.6640625 C-11.29012766 31.39653459 -11.17915232 27.14421865 -11.13891602 22.81958008 C-11.12505951 20.73551372 -11.15911189 18.65595203 -11.19726562 16.57226562 C-11.19533203 15.25291016 -11.19339844 13.93355469 -11.19140625 12.57421875 C-11.19213135 11.36902588 -11.19285645 10.16383301 -11.19360352 8.92211914 C-9.9804032 2.65900186 -6.18882637 0.03683825 0 0 Z " fill="#FDFBF3" transform="translate(345.5625,363.3359375)"/>
<path d="M0 0 C0.98935547 -0.01611328 1.97871094 -0.03222656 2.99804688 -0.04882812 C12.1378763 -0.05497461 12.1378763 -0.05497461 16.0625 3.3125 C18.26596276 7.71942551 17.33081385 13.64570727 17.35766602 18.54321289 C17.37490907 20.73842395 17.41880224 22.93213996 17.46289062 25.12695312 C17.47301529 26.52082226 17.48153211 27.91470419 17.48828125 29.30859375 C17.50286377 30.57888428 17.51744629 31.8491748 17.5324707 33.15795898 C17.0625 36.3125 17.0625 36.3125 15.39331055 38.22314453 C10.73842008 40.39870976 5.60722893 39.78135142 0.5625 39.75 C-0.57832031 39.76998047 -1.71914063 39.78996094 -2.89453125 39.81054688 C-3.99152344 39.80990234 -5.08851563 39.80925781 -6.21875 39.80859375 C-7.21970703 39.81044678 -8.22066406 39.8122998 -9.25195312 39.81420898 C-12.63776376 39.181678 -13.79270165 37.94651137 -15.9375 35.3125 C-18.09050199 31.00649602 -17.12246133 25.22954145 -17.125 20.5 C-17.13724609 19.31083984 -17.14949219 18.12167969 -17.16210938 16.89648438 C-17.16404297 15.74857422 -17.16597656 14.60066406 -17.16796875 13.41796875 C-17.17207764 12.36762451 -17.17618652 11.31728027 -17.18041992 10.23510742 C-16.92287204 7.13650879 -16.43734128 5.03568545 -14.9375 2.3125 C-10.56017558 -0.81483478 -5.14978177 -0.01670922 0 0 Z " fill="#FBF9F2" transform="translate(671.9375,452.6875)"/>
<path d="M0 0 C1.09763672 -0.02449219 2.19527344 -0.04898437 3.32617188 -0.07421875 C4.91075195 -0.08001953 4.91075195 -0.08001953 6.52734375 -0.0859375 C7.492771 -0.09415527 8.45819824 -0.10237305 9.45288086 -0.11083984 C12.78990264 0.51042251 13.94251808 1.78615563 16.0625 4.375 C18.27977665 8.80955329 17.24749503 14.8803316 17.25 19.75 C17.26224609 20.99523437 17.27449219 22.24046875 17.28710938 23.5234375 C17.28904297 24.7196875 17.29097656 25.9159375 17.29296875 27.1484375 C17.29707764 28.24591309 17.30118652 29.34338867 17.30541992 30.47412109 C17.06390042 33.3582766 16.67354946 34.99322393 15.0625 37.375 C9.92705802 39.90655591 4.60040149 39.70798428 -1 39.6875 C-2.32741211 39.71166992 -2.32741211 39.71166992 -3.68164062 39.73632812 C-8.56273221 39.73998986 -12.0118683 39.62134734 -15.9375 36.375 C-18.14771576 31.95456849 -17.12249403 25.91655859 -17.125 21.0625 C-17.13724609 19.82564453 -17.14949219 18.58878906 -17.16210938 17.31445312 C-17.16404297 16.12142578 -17.16597656 14.92839844 -17.16796875 13.69921875 C-17.17207764 12.60697998 -17.17618652 11.51474121 -17.18041992 10.3894043 C-16.92911653 7.27096909 -16.39104665 5.1377974 -14.9375 2.375 C-10.27688611 -0.73207593 -5.48191488 0.00641535 0 0 Z " fill="#FBF9F2" transform="translate(351.9375,452.625)"/>
<path d="M0 0 C1.08861328 -0.01095703 2.17722656 -0.02191406 3.29882812 -0.03320312 C11.31511904 0.04079341 11.31511904 0.04079341 14.21655273 2.47290039 C18.27947803 7.40616434 17.16116863 13.24308252 17.1875 19.375 C17.208125 20.56416016 17.22875 21.75332031 17.25 22.97851562 C17.25773437 24.70038086 17.25773437 24.70038086 17.265625 26.45703125 C17.27964355 28.03254761 17.27964355 28.03254761 17.29394531 29.63989258 C16.87952751 33.0378347 16.05996812 34.88604493 13.9375 37.5625 C9.42014858 39.49345554 3.77066904 38.78752238 -1.0625 38.8125 C-2.06023437 38.833125 -3.05796875 38.85375 -4.0859375 38.875 C-5.04757812 38.88015625 -6.00921875 38.8853125 -7 38.890625 C-7.87527344 38.8999707 -8.75054687 38.90931641 -9.65234375 38.91894531 C-12.58937497 38.48457886 -13.92819702 37.60011475 -16.0625 35.5625 C-17.81958479 30.29124564 -17.37440791 24.70518964 -17.4375 19.1875 C-17.47488281 17.95515625 -17.51226562 16.7228125 -17.55078125 15.453125 C-17.63682056 6.63887562 -17.63682056 6.63887562 -15.29296875 2.24609375 C-10.27721302 -0.36792163 -5.56929671 -0.12243849 0 0 Z " fill="#FBF9F2" transform="translate(352.0625,540.4375)"/>
<path d="M0 0 C1.14533203 -0.02449219 2.29066406 -0.04898438 3.47070312 -0.07421875 C4.57220703 -0.07808594 5.67371094 -0.08195313 6.80859375 -0.0859375 C7.81591553 -0.09415527 8.8232373 -0.10237305 9.86108398 -0.11083984 C13.39090175 0.52398504 14.51624427 1.44158569 16.5625 4.375 C17.08007812 7.53540039 17.08007812 7.53540039 17.09375 11.22265625 C17.0975769 11.87576279 17.10140381 12.52886932 17.10534668 13.20176697 C17.10806042 14.5776423 17.10073659 15.95356969 17.08398438 17.3293457 C17.06252625 19.43492384 17.08381538 21.53710438 17.109375 23.64257812 C17.1067323 24.98177835 17.10160849 26.32097647 17.09375 27.66015625 C17.08923828 28.87582275 17.08472656 30.09148926 17.08007812 31.34399414 C16.5625 34.375 16.5625 34.375 14.87084961 36.26977539 C12.10315133 37.59493352 10.1629012 37.76255037 7.09765625 37.7734375 C6.05029297 37.77730469 5.00292969 37.78117188 3.92382812 37.78515625 C2.83521484 37.77355469 1.74660156 37.76195312 0.625 37.75 C-0.45974609 37.76160156 -1.54449219 37.77320313 -2.66210938 37.78515625 C-3.71076172 37.78128906 -4.75941406 37.77742187 -5.83984375 37.7734375 C-6.79366943 37.77005371 -7.74749512 37.76666992 -8.73022461 37.76318359 C-11.9836814 37.2966856 -13.85005657 36.39230942 -16.4375 34.375 C-18.28217325 30.02471579 -17.62179931 24.71309831 -17.625 20.0625 C-17.63724609 19.13759766 -17.64949219 18.21269531 -17.66210938 17.25976562 C-17.67348845 11.92298031 -17.42041007 7.36192001 -15.4375 2.375 C-10.67664081 -0.79890613 -5.59804275 0.00627935 0 0 Z " fill="#FCFAF2" transform="translate(672.4375,541.625)"/>
<path d="M0 0 C0.95003906 -0.01417969 1.90007812 -0.02835937 2.87890625 -0.04296875 C5.4375 0.1875 5.4375 0.1875 8.4375 2.1875 C7.35210937 2.29707031 6.26671875 2.40664063 5.1484375 2.51953125 C3.70305848 2.67908608 2.25774949 2.83927611 0.8125 3 C0.09964844 3.07025391 -0.61320312 3.14050781 -1.34765625 3.21289062 C-5.93549415 3.73901883 -9.77777528 4.36283008 -13.5625 7.1875 C-16.75242552 13.49261335 -16.98581882 19.9679413 -16.91894531 26.89208984 C-16.92098969 27.92246368 -16.92303406 28.95283752 -16.92514038 30.01443481 C-16.92812892 33.39262104 -16.90973407 36.77030995 -16.890625 40.1484375 C-16.88756486 42.50493245 -16.88569068 44.86142921 -16.88494873 47.21792603 C-16.88035833 52.14193711 -16.8659764 57.0657835 -16.84375 61.98974609 C-16.81537536 68.30830916 -16.80452766 74.62674326 -16.8000679 80.945364 C-16.79591781 85.80426324 -16.78610526 90.66313633 -16.77419281 95.52202225 C-16.76848928 97.85288916 -16.76373085 100.18375858 -16.75992584 102.51462936 C-16.75307193 105.76289067 -16.73944591 109.01104885 -16.72363281 112.25927734 C-16.72251495 113.2255304 -16.72139709 114.19178345 -16.72024536 115.18731689 C-16.71453522 116.07033478 -16.70882507 116.95335266 -16.70294189 117.86312866 C-16.69996723 118.63035437 -16.69699257 119.39758007 -16.69392776 120.18805504 C-16.63353815 122.3965891 -16.63353815 122.3965891 -15.5625 125.1875 C-15.87591519 126.85802681 -16.21246179 128.52426155 -16.5625 130.1875 C-16.65232243 132.31242327 -16.69037531 134.43983008 -16.69189453 136.56665039 C-16.69504669 137.83469009 -16.69819885 139.1027298 -16.70144653 140.40919495 C-16.69965672 141.78451574 -16.69760576 143.15983621 -16.6953125 144.53515625 C-16.69598661 145.95332353 -16.69695754 147.3714907 -16.69821167 148.78965759 C-16.6996831 151.7560232 -16.6975516 154.72235862 -16.69287109 157.6887207 C-16.68716892 161.48728616 -16.6904594 165.28578103 -16.69644356 169.08434391 C-16.70005969 172.01057974 -16.69890583 174.93679887 -16.69631577 177.8630352 C-16.69564968 179.26364589 -16.69646378 180.66425811 -16.69879532 182.06486702 C-16.70133962 184.02249242 -16.69677302 185.98012316 -16.69189453 187.93774414 C-16.69109894 189.0507338 -16.69030334 190.16372345 -16.68948364 191.31044006 C-16.66255068 194.11107095 -16.66255068 194.11107095 -15.99191284 196.45310974 C-15.5625 198.1875 -15.5625 198.1875 -16.5625 200.1875 C-16.64622659 201.70898326 -16.66980027 203.23405778 -16.66015625 204.7578125 C-16.65693359 205.65371094 -16.65371094 206.54960938 -16.65039062 207.47265625 C-16.63782227 208.87837891 -16.63782227 208.87837891 -16.625 210.3125 C-16.62048828 211.25738281 -16.61597656 212.20226562 -16.61132812 213.17578125 C-16.59952357 215.51308387 -16.58305759 217.85026061 -16.5625 220.1875 C-15.9025 220.5175 -15.2425 220.8475 -14.5625 221.1875 C-14.8925 222.1775 -15.2225 223.1675 -15.5625 224.1875 C-18.64289847 221.11041193 -18.91954158 218.46150208 -18.96839231 214.20279324 C-18.96238227 213.40143818 -18.95637222 212.60008312 -18.95018005 211.77444458 C-18.95556559 210.91771428 -18.96095113 210.06098398 -18.96649987 209.17829216 C-18.98082743 206.30247258 -18.97366388 203.42711019 -18.96655273 200.55126953 C-18.97225383 198.49147165 -18.97921708 196.43167692 -18.98735046 194.37188721 C-19.00532683 188.77268085 -19.00410493 183.17363082 -18.99840808 177.57440424 C-18.99532235 172.90234044 -19.0014019 168.23030694 -19.00744683 163.55824745 C-19.02150549 152.53669022 -19.01991992 141.51521049 -19.00854492 130.49365234 C-18.99706521 119.11922177 -19.01113397 107.74502701 -19.0379414 96.37062752 C-19.060087 86.60915817 -19.06673825 76.84776291 -19.06086498 67.08627021 C-19.05749115 61.25437709 -19.05993876 55.42263512 -19.07711601 49.59076309 C-19.09256455 44.10614611 -19.08865262 38.62187876 -19.06981087 33.1372757 C-19.06611905 31.1240966 -19.06925064 29.11089173 -19.07969666 27.09773636 C-19.09286779 24.34959371 -19.08139345 21.60261511 -19.06370544 18.85452271 C-19.07331045 18.05762909 -19.08291546 17.26073548 -19.09281152 16.43969357 C-19.02406536 11.24926243 -17.97380091 8.31587002 -14.5625 4.1875 C-9.82824977 0.75516858 -5.7635965 0.03920814 0 0 Z " fill="#FA4836" transform="translate(414.5625,309.8125)"/>
<path d="M0 0 C0.495 0.99 0.495 0.99 1 2 C0.113125 1.835 -0.77375 1.67 -1.6875 1.5 C-10.46811602 0.28641892 -18.9537625 -0.02311875 -27 4 C-27.33 4.66 -27.66 5.32 -28 6 C-28.99 6.33 -29.98 6.66 -31 7 C-31.66 7.66 -32.32 8.32 -33 9 C-34.051875 9.7115625 -34.051875 9.7115625 -35.125 10.4375 C-35.74375 10.953125 -36.3625 11.46875 -37 12 C-37 12.99 -37 13.98 -37 15 C-37.70125 15.4125 -38.4025 15.825 -39.125 16.25 C-42.28601732 18.1740975 -44.06576303 20.19796671 -46.3828125 23.03125 C-48.65992167 25.80338291 -51.07853669 28.44495836 -53.484375 31.10546875 C-54.99106228 32.98882785 -56.00873619 34.80852953 -57 37 C-57.66 37 -58.32 37 -59 37 C-59.66 38.32 -60.32 39.64 -61 41 C-61.66 41 -62.32 41 -63 41 C-63.226875 41.94875 -63.45375 42.8975 -63.6875 43.875 C-65 47 -65 47 -67.625 48.375 C-68.40875 48.58125 -69.1925 48.7875 -70 49 C-70 49.99 -70 50.98 -70 52 C-70.66 52 -71.32 52 -72 52 C-72.226875 52.556875 -72.45375 53.11375 -72.6875 53.6875 C-74.36108101 56.63619036 -76.60293013 58.60293013 -79 61 C-80.31818373 62.75113557 -81.56390837 64.53438759 -82.7890625 66.3515625 C-84.06375479 68.08678877 -85.44725683 69.51112288 -87 71 C-87.886875 71.886875 -88.77375 72.77375 -89.6875 73.6875 C-90.450625 74.450625 -91.21375 75.21375 -92 76 C-92.66 75.67 -93.32 75.34 -94 75 C-93.31035156 74.26136719 -92.62070312 73.52273438 -91.91015625 72.76171875 C-86.50422929 66.93853632 -81.29437968 61.02812747 -76.3046875 54.83984375 C-73.78391112 51.73373455 -71.21327011 48.67484342 -68.625 45.625 C-68.1707666 45.08907227 -67.7165332 44.55314453 -67.24853516 44.00097656 C-64.80061765 41.11510123 -62.34693791 38.23420001 -59.890625 35.35546875 C-59.3857959 34.76233887 -58.8809668 34.16920898 -58.36083984 33.55810547 C-57.38895863 32.41631272 -56.41539203 31.27595188 -55.43994141 30.13720703 C-52.96098553 27.24654188 -52.96098553 27.24654188 -51 24 C-50.34 24 -49.68 24 -49 24 C-48.75378906 23.44957031 -48.50757813 22.89914062 -48.25390625 22.33203125 C-42.34031313 11.33385338 -32.70439404 2.52538349 -20.8359375 -1.34765625 C-13.76518517 -2.97412407 -6.75638148 -2.64380145 0 0 Z " fill="#F36A27" transform="translate(621,312)"/>
<path d="M0 0 C2.60382003 0.95473401 3.77285268 1.58274439 5.11778069 4.05329418 C6.26256449 7.87699316 6.26962264 11.50749307 6.24050903 15.45979309 C6.24221788 16.30936055 6.24392673 17.15892802 6.24568737 18.03423995 C6.24898019 20.87943928 6.23798193 23.72440249 6.22705078 26.56958008 C6.22648662 28.60970046 6.22680332 30.64982126 6.22793579 32.68994141 C6.22851012 38.22876039 6.21674272 43.76749294 6.20278788 49.30629182 C6.19029397 55.09454553 6.18911107 60.88280117 6.18673706 66.67106628 C6.18051836 77.63216078 6.16410223 88.59321544 6.14403808 99.55429238 C6.12169125 112.03300453 6.11068871 124.51171856 6.10064721 136.99044573 C6.07973637 162.66031926 6.04455277 188.3301574 6 214 C5.67 214 5.34 214 5 214 C4.86720807 195.65310267 4.73676549 177.30619004 4.60884857 158.95925808 C4.5493548 150.43336155 4.48919123 141.9074709 4.42724609 133.3815918 C4.36736438 125.13530203 4.30926864 116.88900117 4.25259399 108.64268875 C4.23015425 105.37911208 4.20714089 102.11554019 4.1836853 98.85197067 C4.07012966 82.95004532 3.97259197 67.0493112 4.03162289 51.14695871 C4.03894915 49.16398128 4.04509194 47.18099958 4.05121613 45.19801807 C4.07064339 39.20842867 4.10032126 33.2192562 4.15026855 27.22984314 C4.15977078 25.15070753 4.16894741 23.0715704 4.17773438 20.99243164 C4.18964813 20.07162622 4.20156189 19.15082081 4.21383667 18.2021122 C4.22747221 11.5194106 3.31968312 5.92800557 0 0 Z " fill="#FE7B22" transform="translate(622,314)"/>
<path d="M0 0 C0.66 0.33 1.32 0.66 2 1 C2.14123501 22.33083237 2.02191308 43.66301747 1.76267529 64.99254894 C1.71920103 68.57078794 1.68045848 72.1489177 1.65383911 75.72732544 C1.62311512 79.79639103 1.56841343 83.86480663 1.51171875 87.93359375 C1.50532379 89.16342987 1.49892883 90.39326599 1.49234009 91.66036987 C1.30833551 102.28459745 1.30833551 102.28459745 -2 107 C-4.6875 109.375 -4.6875 109.375 -7 111 C-7.66 110.34 -8.32 109.68 -9 109 C-7.515 108.505 -7.515 108.505 -6 108 C-5.505 107.01 -5.505 107.01 -5 106 C-4.34 105.01 -3.68 104.02 -3 103 C-1.41513599 95.35975937 -1.92302879 87.19976477 -2.03662109 79.43383789 C-2.07940954 75.3515779 -1.97707703 71.3855004 -1.5 67.32861328 C-0.95867728 62.12681773 -0.88818906 57.00283722 -0.9375 51.77734375 C-0.94128662 50.83298965 -0.94507324 49.88863556 -0.94897461 48.91566467 C-0.96507903 44.93012826 -0.99306461 40.94470051 -1.02050781 36.95922852 C-1.09809151 24.59381584 -0.92641385 12.33391835 0 0 Z " fill="#F24734" transform="translate(447,427)"/>
<path d="M0 0 C0.495 0.99 0.495 0.99 1 2 C0.113125 1.835 -0.77375 1.67 -1.6875 1.5 C-10.46811602 0.28641892 -18.9537625 -0.02311875 -27 4 C-27.33 4.66 -27.66 5.32 -28 6 C-28.99 6.33 -29.98 6.66 -31 7 C-31.66 7.66 -32.32 8.32 -33 9 C-33.70125 9.474375 -34.4025 9.94875 -35.125 10.4375 C-35.74375 10.953125 -36.3625 11.46875 -37 12 C-37 12.99 -37 13.98 -37 15 C-37.680625 15.391875 -38.36125 15.78375 -39.0625 16.1875 C-43.20150182 18.74135219 -45.92873267 22.273765 -49 26 C-49.33 25.34 -49.66 24.68 -50 24 C-47.70617395 20.96784869 -45.3668609 17.97548227 -43 15 C-42.37480469 14.21109375 -41.74960937 13.4221875 -41.10546875 12.609375 C-30.84131265 0.31747319 -15.58152272 -6.09711759 0 0 Z " fill="#F2841E" transform="translate(621,312)"/>
<path d="M0 0 C2.71475851 0.99541146 3.79274882 1.58984282 5.11862183 4.21379089 C6.08508524 7.26897113 6.24099551 9.69153015 6.22705078 12.8918457 C6.22689972 14.05267166 6.22674866 15.21349762 6.22659302 16.40950012 C6.21627045 17.65237289 6.20594788 18.89524567 6.1953125 20.17578125 C6.1924826 21.45607712 6.18965271 22.73637299 6.18673706 24.0554657 C6.1791278 27.44703075 6.15950293 30.8384225 6.1373291 34.22991943 C6.11681206 37.69557349 6.10772286 41.16125575 6.09765625 44.62695312 C6.07561492 51.41804366 6.04215129 58.20900612 6 65 C5.67 65 5.34 65 5 65 C4.82655119 60.31273048 4.66108109 55.62520869 4.5 50.9375 C4.47565887 50.23826416 4.45131775 49.53902832 4.42623901 48.81860352 C4.07653791 38.61452705 3.89524215 28.43317402 4.125 18.22241211 C4.21602595 11.49723766 3.34344949 5.97044553 0 0 Z " fill="#FB921A" transform="translate(622,314)"/>
<path d="M0 0 C0.99 0.66 1.98 1.32 3 2 C1.91460937 2.10957031 0.82921875 2.21914063 -0.2890625 2.33203125 C-1.73444152 2.49158608 -3.17975051 2.65177611 -4.625 2.8125 C-5.33785156 2.88275391 -6.05070312 2.95300781 -6.78515625 3.02539062 C-11.39056233 3.55353352 -15.01558431 4.45573456 -19 7 C-20.30849363 8.74701238 -20.30849363 8.74701238 -20.875 10.6875 C-21.24625 11.780625 -21.6175 12.87375 -22 14 C-22.66 14 -23.32 14 -24 14 C-23.73678471 10.22724754 -23.24776305 8.31334738 -20.875 5.3125 C-14.35140236 0.06525842 -8.25937139 -1.01269363 0 0 Z " fill="#EA4C32" transform="translate(420,310)"/>
<path d="M0 0 C1.32 0 2.64 0 4 0 C4 0.66 4 1.32 4 2 C15.75768179 4.08587634 15.75768179 4.08587634 27 2 C27 2.66 27 3.32 27 4 C28.45880109 3.85892253 29.91703551 3.71197585 31.375 3.5625 C32.18710937 3.48128906 32.99921875 3.40007813 33.8359375 3.31640625 C36.04272805 3.10909886 36.04272805 3.10909886 38 2 C38 2.99 38 3.98 38 5 C33.6950223 5.07451364 29.39039266 5.12877223 25.08496094 5.16479492 C23.62232925 5.17982196 22.15974218 5.20024955 20.69726562 5.22631836 C18.5871272 5.26297267 16.47758774 5.27978676 14.3671875 5.29296875 C12.46622314 5.31653442 12.46622314 5.31653442 10.52685547 5.34057617 C6.67625038 4.96873662 4.27638772 4.02307258 1 2 C0.67 1.34 0.34 0.68 0 0 Z " fill="#F94638" transform="translate(399,534)"/>
<path d="M0 0 C0.71115967 0.15847412 1.42231934 0.31694824 2.1550293 0.48022461 C4.97891634 0.99614802 7.65298992 1.20430687 10.51953125 1.31640625 C11.54111328 1.35830078 12.56269531 1.40019531 13.61523438 1.44335938 C14.67033203 1.48267578 15.72542969 1.52199219 16.8125 1.5625 C18.42415039 1.62727539 18.42415039 1.62727539 20.06835938 1.69335938 C22.71212082 1.79910983 25.3559711 1.90120233 28 2 C25.48176176 4.51823824 24.61427953 4.25675825 21.1328125 4.265625 C20.16472656 4.26820313 19.19664062 4.27078125 18.19921875 4.2734375 C16.67748047 4.26183594 16.67748047 4.26183594 15.125 4.25 C14.11824219 4.25773437 13.11148437 4.26546875 12.07421875 4.2734375 C10.61822266 4.26957031 10.61822266 4.26957031 9.1328125 4.265625 C8.24480957 4.26336914 7.35680664 4.26111328 6.44189453 4.25878906 C3.86450872 3.9856408 2.22121838 3.30082403 0 2 C0 1.34 0 0.68 0 0 Z " fill="#D2D8D8" transform="translate(337,311)"/>
<path d="M0 0 C1.9375 0.375 1.9375 0.375 4 1 C5.48679725 3.97359449 5.11112605 6.66299179 5.09765625 9.9765625 C5.0962413 10.66181 5.09482635 11.3470575 5.09336853 12.05307007 C5.08776675 14.24375761 5.07521406 16.4343433 5.0625 18.625 C5.05748522 20.10937352 5.05292228 21.59374865 5.04882812 23.078125 C5.03779677 26.71878315 5.02053099 30.35938164 5 34 C4.67 34 4.34 34 4 34 C3.98541748 33.1121582 3.97083496 32.22431641 3.95581055 31.30957031 C3.89465466 28.00672038 3.82048622 24.70469085 3.73754883 21.40234375 C3.70435206 19.97472086 3.67630369 18.54696837 3.65356445 17.11914062 C3.61991987 15.06324185 3.56760438 13.00852488 3.51171875 10.953125 C3.48553467 9.71723633 3.45935059 8.48134766 3.43237305 7.20800781 C2.97923718 3.8459495 2.28857804 2.44043945 0 0 Z " fill="#E7EBE9" transform="translate(364,276)"/>
<path d="M0 0 C1.32 0 2.64 0 4 0 C4 0.66 4 1.32 4 2 C6.64 2.33 9.28 2.66 12 3 C11.67 3.66 11.34 4.32 11 5 C4.6 4.50769231 4.6 4.50769231 1.5625 1.9375 C1.046875 1.298125 0.53125 0.65875 0 0 Z " fill="#E24139" transform="translate(399,534)"/>
<path d="M0 0 C1.32 0.66 2.64 1.32 4 2 C4 2.66 4 3.32 4 4 C3.34 4 2.68 4 2 4 C1.34 5.98 0.68 7.96 0 10 C-0.33 10 -0.66 10 -1 10 C-1.125 2.25 -1.125 2.25 0 0 Z " fill="#24293A" transform="translate(450,417)"/>
<path d="M0 0 C0.66 0.66 1.32 1.32 2 2 C0.60804085 4.7839183 -1.15575779 4.97898997 -4 6 C-4 5.01 -4 4.02 -4 3 C-2 1.3125 -2 1.3125 0 0 Z " fill="#12243D" transform="translate(572,417)"/>
</svg>
